<svg width="16" height="16" viewBox="0 0 16 16" fill="none" xmlns="http://www.w3.org/2000/svg">
<rect width="16" height="16" rx="4" fill="#EEEEEE"/>
<path d="M13.9858 9.52944L12.961 5.31324C12.8897 4.84916 12.4457 4 11.2563 4C11.1775 4 11.1019 4.03121 11.0461 4.08676C10.9903 4.14231 10.959 4.21766 10.959 4.29622C10.959 4.37478 10.9903 4.45013 11.0461 4.50568C11.1019 4.56123 11.1775 4.59244 11.2563 4.59244C12.2177 4.59244 12.3604 5.32904 12.3743 5.41001L13.3178 9.30036H12.9035C12.8607 8.96099 12.7446 8.63489 12.5632 8.34445C12.3819 8.05401 12.1396 7.80613 11.853 7.61783C11.7632 7.65548 11.6866 7.71863 11.6327 7.79941C11.5787 7.88019 11.5499 7.97501 11.5497 8.07204C11.5508 8.08913 11.5508 8.10628 11.5497 8.12338C11.7907 8.28808 11.9886 8.50802 12.1265 8.76473C12.2645 9.02143 12.3386 9.30739 12.3426 9.59855C12.3414 9.69788 12.3321 9.79694 12.3148 9.89477C12.2499 10.3143 12.0365 10.6968 11.7131 10.9731C11.3897 11.2495 10.9777 11.4014 10.5517 11.4014C10.1256 11.4014 9.71366 11.2495 9.39027 10.9731C9.06688 10.6968 8.85343 10.3143 8.78854 9.89477C8.77127 9.79694 8.76199 9.69788 8.76079 9.59855C8.76389 9.32458 8.82822 9.05474 8.9491 8.80864C8.84884 8.80163 8.755 8.75694 8.68655 8.68362C8.61811 8.61029 8.58017 8.51381 8.58042 8.41368C8.58075 8.37781 8.56727 8.34318 8.54275 8.31691C8.35096 8.61503 8.22964 8.95266 8.18795 9.30431H7.81926C7.75601 8.72347 7.47963 8.18639 7.04317 7.79618C6.60671 7.40597 6.04096 7.19014 5.45453 7.19014C4.8681 7.19014 4.30234 7.40597 3.86589 7.79618C3.42943 8.18639 3.15304 8.72347 3.0898 9.30431H2.67949L3.62498 5.41001C3.63688 5.32904 3.78554 4.59244 4.74293 4.59244C4.82178 4.59244 4.89741 4.56123 4.95317 4.50568C5.00893 4.45013 5.04025 4.37478 5.04025 4.29622C5.04025 4.21766 5.00893 4.14231 4.95317 4.08676C4.89741 4.03121 4.82178 4 4.74293 4C3.55362 4 3.10962 4.84916 3.03826 5.31324L2.01149 9.52944C1.99879 9.57235 1.99658 9.61767 2.00504 9.6616C2.01351 9.70554 2.0324 9.74682 2.06014 9.782C2.08789 9.81718 2.12368 9.84523 2.16452 9.86382C2.20537 9.88241 2.25009 9.89099 2.29494 9.88885H3.08781C3.10394 10.011 3.12912 10.1318 3.16314 10.2502C3.17566 10.2286 3.18248 10.2041 3.18296 10.1791C3.18296 10.0744 3.22472 9.97394 3.29907 9.89987C3.37342 9.8258 3.47425 9.78419 3.57939 9.78419C3.61158 9.78461 3.64357 9.78926 3.67454 9.79801C3.6659 9.72922 3.66127 9.65998 3.66066 9.59066C3.66119 9.49138 3.66981 9.39232 3.68643 9.29444C3.74993 8.87357 3.96291 8.48939 4.28665 8.21171C4.61038 7.93404 5.02338 7.78133 5.45056 7.78133C5.87774 7.78133 6.29074 7.93404 6.61448 8.21171C6.93822 8.48939 7.1512 8.87357 7.2147 9.29444C7.23132 9.39232 7.23994 9.49138 7.24047 9.59066C7.23735 10.0611 7.0484 10.5113 6.71451 10.844C6.38063 11.1766 5.92868 11.3649 5.45651 11.368C5.07006 11.3733 4.69235 11.2534 4.38019 11.0263C4.30866 11.0882 4.21725 11.1226 4.12251 11.1231C4.08342 11.1236 4.04612 11.1395 4.01867 11.1672C3.99121 11.1949 3.97582 11.2323 3.97583 11.2712C3.97529 11.3264 3.96313 11.3809 3.94015 11.4312C4.36421 11.7813 4.89781 11.9727 5.44858 11.9723C6.03038 11.9748 6.59292 11.7647 7.02978 11.3819C7.46664 10.9991 7.74751 10.47 7.81926 9.89477H8.18002C8.24531 10.4738 8.52244 11.0086 8.95848 11.397C9.39452 11.7853 9.95889 12 10.5438 12C11.1286 12 11.693 11.7853 12.129 11.397C12.5651 11.0086 12.8422 10.4738 12.9075 9.89477H13.7004C13.7462 9.89807 13.7921 9.89006 13.8341 9.87145C13.8761 9.85284 13.9128 9.82421 13.9411 9.78808C13.9693 9.75196 13.9881 9.70946 13.9959 9.66434C14.0037 9.61923 14.0003 9.57289 13.9858 9.52944Z" fill="black"/>
</svg>
